<?xml version="1.0" encoding="utf-8"?>
<!-- Generator: Adobe Illustrator 21.0.0, SVG Export Plug-In . SVG Version: 6.00 Build 0)  -->
<svg version="1.1" id="OBJECTS" xmlns="http://www.w3.org/2000/svg" xmlns:xlink="http://www.w3.org/1999/xlink" x="0px" y="0px"
	 viewBox="0 0 800 500" style="enable-background:new 0 0 800 500;" xml:space="preserve">
<style type="text/css">
	.st0{opacity:0.38;clip-path:url(#XMLID_4_);fill:url(#SVGID_1_);fill-opacity:0.4;enable-background:new    ;}
	.st1{fill:url(#SVGID_2_);fill-opacity:0.33;}
	.st2{opacity:0.19;fill:url(#SVGID_3_);enable-background:new    ;}
	.st3{fill:url(#SVGID_4_);}
	.st4{opacity:0.56;fill:url(#SVGID_5_);enable-background:new    ;}
	.st5{opacity:0.5;fill:#6376FA;enable-background:new    ;}
	.st6{fill:#212463;}
	.st7{fill:#E1C39C;}
	.st8{fill:#BC916E;}
	.st9{opacity:0.42;fill:url(#SVGID_6_);enable-background:new    ;}
	.st10{fill:url(#SVGID_7_);}
	.st11{fill:url(#SVGID_8_);}
	.st12{fill:url(#SVGID_9_);}
	.st13{fill:#D8AE8B;}
	.st14{fill:url(#SVGID_10_);}
	.st15{fill:url(#SVGID_11_);}
	.st16{fill:url(#SVGID_12_);}
	.st17{fill:url(#SVGID_13_);}
	.st18{fill:#853073;}
	.st19{fill:#9E3D89;}
	.st20{fill:url(#SVGID_14_);}
	.st21{fill:#808083;}
	.st22{fill:url(#SVGID_15_);}
	.st23{fill:#59595B;}
	.st24{fill:#2D2D99;}
	.st25{fill:url(#SVGID_16_);}
	.st26{opacity:0.31;fill:url(#SVGID_17_);enable-background:new    ;}
	.st27{opacity:0.31;fill:url(#SVGID_18_);enable-background:new    ;}
	.st28{fill:url(#SVGID_19_);}
	.st29{fill:url(#SVGID_20_);}
	.st30{fill:url(#SVGID_21_);}
	.st31{opacity:0.7;fill:#6376FA;enable-background:new    ;}
	.st32{opacity:0.42;fill:url(#SVGID_22_);enable-background:new    ;}
	.st33{opacity:0.42;fill:url(#SVGID_23_);enable-background:new    ;}
	.st34{opacity:0.42;fill:url(#SVGID_24_);enable-background:new    ;}
	.st35{opacity:0.25;fill:url(#SVGID_25_);fill-opacity:0.4;enable-background:new    ;}
</style>
<g>
	<defs>
		<rect id="XMLID_1_" x="-1.1" y="-0.5" width="802.8" height="500.5"/>
	</defs>
	
		<linearGradient id="XMLID_3_" gradientUnits="userSpaceOnUse" x1="74.475" y1="-75.575" x2="726.125" y2="576.075" gradientTransform="matrix(1 0 0 -1 0 500)">
		<stop  offset="0" style="stop-color:#F52985"/>
		<stop  offset="1" style="stop-color:#000041"/>
	</linearGradient>
	<use xlink:href="#XMLID_1_"  style="overflow:visible;fill:url(#XMLID_3_);"/>
	<clipPath id="XMLID_4_">
		<use xlink:href="#XMLID_1_"  style="overflow:visible;"/>
	</clipPath>
	
		<linearGradient id="SVGID_1_" gradientUnits="userSpaceOnUse" x1="326.528" y1="-283.9402" x2="326.528" y2="267.3497" gradientTransform="matrix(-0.7296 0.6839 0.6839 0.7296 392.2195 -71.1039)">
		<stop  offset="0" style="stop-color:#F6F6F7"/>
		<stop  offset="1" style="stop-color:#F6F6F7;stop-opacity:0"/>
	</linearGradient>
	<path class="st0" d="M148.6,523.7L525,170.8L36.5-70.6l-0.2-0.2c-0.3-0.4-0.7-0.5-0.9-0.8c-7.9-5.8-19.9-7.5-34.7-3.9
		C-33.5-67.2-69.9-33-80.5,0.6c-4.9,15.3-3.5,27.9,2.7,36.3L148.6,523.7z"/>
</g>
<g>
	
		<linearGradient id="SVGID_2_" gradientUnits="userSpaceOnUse" x1="901.9977" y1="36.775" x2="901.9977" y2="492.8" gradientTransform="matrix(1 0 0 -1 -299.9977 500)">
		<stop  offset="0" style="stop-color:#F6F6F7"/>
		<stop  offset="1" style="stop-color:#F6F6F7;stop-opacity:0"/>
	</linearGradient>
	<path class="st1" d="M496.3,7.2l35.9,419.3c0,0.9,0.1,1.9,0.2,2.8v0.2c0.1,0.4,0.1,0.7,0.1,1c1.7,8,8.8,15.8,21.1,22
		c28.7,14.3,75.3,14.3,104,0c13.4-6.7,20.6-15.3,21.5-24.1v-0.1c0.1-0.6,0.1-1.2,0.1-1.8L707.7,7.2H496.3z"/>
	
		<linearGradient id="SVGID_3_" gradientUnits="userSpaceOnUse" x1="796.3977" y1="73.7" x2="1014.9977" y2="73.7" gradientTransform="matrix(1 0 0 -1 -299.9977 500)">
		<stop  offset="0" style="stop-color:#3E4EE0"/>
		<stop  offset="0.1369" style="stop-color:#434FDF"/>
		<stop  offset="0.3065" style="stop-color:#5353DC"/>
		<stop  offset="0.4933" style="stop-color:#6C5AD7"/>
		<stop  offset="0.6927" style="stop-color:#8F63D0"/>
		<stop  offset="0.8998" style="stop-color:#BC6FC7"/>
		<stop  offset="1" style="stop-color:#D475C2"/>
	</linearGradient>
	<path class="st2" d="M605.7,361.3c27.2,0,54.4,6.4,75.2,19c41.5,25.4,41.5,66.5,0,91.9c-20.8,12.7-48,19-75.2,19s-54.4-6.4-75.2-19
		c-41.5-25.4-41.5-66.5,0-91.9C551.3,367.6,578.5,361.3,605.7,361.3L605.7,361.3z M605.7,358.3c-28.9,0-56.2,6.9-76.7,19.5
		c-21,12.8-32.6,30.1-32.6,48.5S508,462,529,474.8c20.5,12.6,47.8,19.5,76.7,19.5s56.2-6.9,76.7-19.5c21-12.8,32.6-30.1,32.6-48.5
		s-11.6-35.7-32.6-48.5C661.9,365.2,634.7,358.3,605.7,358.3L605.7,358.3z"/>
	
		<linearGradient id="SVGID_4_" gradientUnits="userSpaceOnUse" x1="872.5632" y1="110.3996" x2="939.8384" y2="36.64" gradientTransform="matrix(1 0 0 -1 -299.9977 500)">
		<stop  offset="0" style="stop-color:#3E4EE0"/>
		<stop  offset="0.1369" style="stop-color:#434FDF"/>
		<stop  offset="0.3065" style="stop-color:#5353DC"/>
		<stop  offset="0.4933" style="stop-color:#6C5AD7"/>
		<stop  offset="0.6927" style="stop-color:#8F63D0"/>
		<stop  offset="0.8998" style="stop-color:#BC6FC7"/>
		<stop  offset="1" style="stop-color:#D475C2"/>
	</linearGradient>
	<path class="st3" d="M657.1,398.4c-13.7-7.2-32-11.1-51.3-11.1s-37.6,3.9-51.3,11.1c-14.3,7.5-22.2,17.5-22.2,28.4
		c0,1.3,0.1,2.5,0.3,3.7c1.7,8,8.8,15.8,21.1,22c28.7,14.3,75.3,14.3,104,0c13.4-6.7,20.6-15.3,21.5-24.1v-0.1c0-0.5,0.1-1,0.1-1.5
		C679.3,415.9,671.4,405.8,657.1,398.4z"/>
	
		<linearGradient id="SVGID_5_" gradientUnits="userSpaceOnUse" x1="944.0269" y1="46.4751" x2="839.4666" y2="121.0452" gradientTransform="matrix(1 0 0 -1 -299.9977 500)">
		<stop  offset="0" style="stop-color:#3E4EE0"/>
		<stop  offset="0.1369" style="stop-color:#434FDF"/>
		<stop  offset="0.3065" style="stop-color:#5353DC"/>
		<stop  offset="0.4933" style="stop-color:#6C5AD7"/>
		<stop  offset="0.6927" style="stop-color:#8F63D0"/>
		<stop  offset="0.8998" style="stop-color:#BC6FC7"/>
		<stop  offset="1" style="stop-color:#D475C2"/>
	</linearGradient>
	<path class="st4" d="M605.8,383.4c20.5,0,40.9,4.2,56.5,12.6c31.2,16.8,31.2,43.9,0,60.7c-15.6,8.4-36.1,12.6-56.5,12.6
		c-20.5,0-40.9-4.2-56.5-12.6c-31.2-16.8-31.2-43.9,0-60.7C564.9,387.6,585.3,383.4,605.8,383.4L605.8,383.4z M605.8,377
		c-22.4,0-43.5,4.7-59.5,13.3c-17.3,9.3-26.8,22-26.8,36c0,13.9,9.5,26.7,26.8,36c16,8.6,37.2,13.3,59.5,13.3
		c22.4,0,43.5-4.7,59.6-13.3c17.3-9.3,26.8-22,26.8-36s-9.5-26.7-26.8-36C649.3,381.8,628.2,377,605.8,377L605.8,377z"/>
	<path class="st5" d="M644.3,217.8v-45.2c-26.9-6-57.1-5.6-83.6,1.3v45.2C587.2,212.3,617.4,211.8,644.3,217.8z"/>
	<path class="st5" d="M733.6,246.6c1.6,0.9,3.1,1.8,4.6,2.8v-79.5c-1.5-0.9-3-1.8-4.6-2.8c-34.4-19.9-79.7-29.6-124.8-29.1v79.5
		C653.9,217.1,699.2,226.8,733.6,246.6z"/>
	<path class="st6" d="M531.6,221.5l0.8,10.9h-5l-1.3-0.6c-3.1-3.6,1.3-11.8,3.7-11.6L531.6,221.5z"/>
	<path class="st7" d="M533.9,222.8l-6.4-2.8c0,0-2.7-2.6-6.2-5c-0.1-0.1-0.2-0.2-0.4-0.3c-0.9-0.6-1.9-1.2-2.8-1.6
		c-0.5-0.3-1.3-0.7-2.1-0.9c-0.3-0.1-0.6-0.2-0.8-0.2h-0.1l0,0c-0.7-0.1-1.3-0.2-2-0.1c-2.9,0.4-10.5,0.8-12.2,1.2
		c-1.3,0.4-2,1.6-1.2,2.3c0.2,0.2,0.6,0.4,1,0.4c-1,0.4-2.3,0.6-2.7,1.5c-0.6,1.4,1.2,2.1,2.4,2.1c0,0-3.1,1.5,0.3,2.5
		c1,0.3,2.3,0.1,3.8,0.1c0,0-3.1,1.2-1.1,2.2s7,0,9.2-0.7c1.3-0.4,3.6,1.8,6.1,3.2c3,1.7,12.4,7.7,12.4,7.7l4.3-10.8L533.9,222.8z"
		/>
	<path class="st8" d="M527.4,219.9c0,0-2.9-2.9-6.6-5.2c-0.9-0.6-1.9-1.2-2.8-1.6c-0.5-0.3-1.3-0.7-2.1-0.9
		c-0.3-0.1-0.6-0.2-0.8-0.2H515l0,0c-0.7-0.1-1.3-0.2-2-0.1c-2.9,0.4-10.5,0.8-12.2,1.2c-1.3,0.4-2,1.6-1.2,2.3
		c-0.1-0.2-0.4-0.8,0.5-1.2c1-0.4,12.8-1.3,13.6-0.9c2.3,0.9,4.3,3.4,3.3,4.4c-1.1,1.2-9.2-3.9-10.3-0.1c-0.5,1.8,6.8,4.2,8.3,5
		c2.1,1.1,2.9,2.7,9.5,2.7c0,0,5.4,2.2,6.9,2.2c1,0,1.2-1.7,2.2-4.5L527.4,219.9z"/>
	
		<linearGradient id="SVGID_6_" gradientUnits="userSpaceOnUse" x1="1009.8123" y1="252.7058" x2="864.3829" y2="336.6694" gradientTransform="matrix(1 0 0 -1 -299.9977 500)">
		<stop  offset="0" style="stop-color:#6E3AFF"/>
		<stop  offset="1" style="stop-color:#FFFFFF"/>
	</linearGradient>
	<path class="st9" d="M709.4,247.5c0.4-0.1,0.7-0.5,0.6-0.9c-3.5-17.3-16.6-32.9-37.9-45.2c-30.7-17.7-74.5-25.6-117.2-21
		c-0.4,0-0.7,0.4-0.7,0.8c0,0.4,0.4,0.7,0.8,0.7c42.4-4.5,85.9,3.3,116.3,20.8c20.9,12.1,33.8,27.3,37.2,44.2
		c0.1,0.4,0.4,0.6,0.7,0.6C709.3,247.6,709.4,247.6,709.4,247.5z"/>
	
		<linearGradient id="SVGID_7_" gradientUnits="userSpaceOnUse" x1="884.1406" y1="316.9885" x2="839.2772" y2="248.9458" gradientTransform="matrix(1 0 0 -1 -299.9977 500)">
		<stop  offset="0" style="stop-color:#3E4EE0"/>
		<stop  offset="0.1369" style="stop-color:#434FDF"/>
		<stop  offset="0.3065" style="stop-color:#5353DC"/>
		<stop  offset="0.4933" style="stop-color:#6C5AD7"/>
		<stop  offset="0.6927" style="stop-color:#8F63D0"/>
		<stop  offset="0.8998" style="stop-color:#BC6FC7"/>
		<stop  offset="1" style="stop-color:#D475C2"/>
	</linearGradient>
	<path class="st10" d="M574.5,205.2c-5,11.1-5.8,19.4-13.3,22.8c-7,3.2-25.9-5.3-31.4-7.9c0.9,0.6,1.6,1.9,1.7,3.7
		c0.1,1.5-0.1,3.1-0.7,4.4l0,0c-0.6,1.5-1.5,2.7-2.5,3.3c-0.8,0.4-1.6,0.4-2.2,0.1l0,0c0,0,23.1,14.1,35.7,14
		c13.2-0.1,16.1-6.9,18.4-13c1.8-4.8,10.8-28.2,14.5-37.7c1-2.5,1.6-4,1.6-4S580.3,192.1,574.5,205.2z"/>
	
		<linearGradient id="SVGID_8_" gradientUnits="userSpaceOnUse" x1="829.8077" y1="285.3229" x2="896.1877" y2="285.3229" gradientTransform="matrix(1 0 0 -1 -299.9977 500)">
		<stop  offset="0" style="stop-color:#3E4EE0"/>
		<stop  offset="0.1369" style="stop-color:#434FDF"/>
		<stop  offset="0.3065" style="stop-color:#5353DC"/>
		<stop  offset="0.4933" style="stop-color:#6C5AD7"/>
		<stop  offset="0.6927" style="stop-color:#8F63D0"/>
		<stop  offset="0.8998" style="stop-color:#BC6FC7"/>
		<stop  offset="1" style="stop-color:#D475C2"/>
	</linearGradient>
	<path class="st11" d="M574.5,205.2c-5,11.1-5.8,19.4-13.3,22.8c-7,3.2-25.9-5.3-31.3-7.9c0.9,0.6,1.6,1.9,1.7,3.7
		c0.1,1.5-0.2,3.1-0.7,4.4l0,0c0,0,21.3,13.2,33.8,9.5s14.1-9.1,14.1-9.1l15.8-33.6c1-2.5,1.6-4,1.6-4S580.3,192.1,574.5,205.2z"/>
	<g>
		
			<linearGradient id="SVGID_9_" gradientUnits="userSpaceOnUse" x1="893.0555" y1="71.5183" x2="893.0555" y2="108.1046" gradientTransform="matrix(1 0 0 -1 -299.9977 500)">
			<stop  offset="0" style="stop-color:#5F7095"/>
			<stop  offset="0.3442" style="stop-color:#45537F"/>
			<stop  offset="0.7633" style="stop-color:#2A3469"/>
			<stop  offset="1" style="stop-color:#202961"/>
		</linearGradient>
		<path class="st12" d="M586.7,415.8c-6.3,4.6-5.4,11.1-4.3,12.2c1,1,6.8,0.4,10.3-1.4s6.7-6,6.7-7.1s0.8-10.6,1.6-10.6
			s0.9,10.6,0.9,10.6h2.6c0,0,0-12.7,0-19.5s-4.1-8-4.1-8L586.7,415.8z"/>
		<path class="st13" d="M607.6,340.6l-20.1,1.5c0,0,0.4,7.5,0.8,16.8l0,0c0.5,12.2,1.1,27.3,1.1,32.4c0,8.8-0.6,23-3.5,26
			c-1.3,1.3-0.6,2.5,0.8,3.1c1.9,0.9,5.1,0.7,7.4-1.5c4-4,3.1-12.7,6.2-19.7c2.2-4.9,0.7-4.9,0.7-8.3
			C601,387.3,607.5,374.3,607.6,340.6z"/>
		
			<linearGradient id="SVGID_10_" gradientUnits="userSpaceOnUse" x1="906.0639" y1="65.6687" x2="930.3973" y2="90.002" gradientTransform="matrix(1 0 0 -1 -299.9977 500)">
			<stop  offset="0" style="stop-color:#5F7095"/>
			<stop  offset="0.3442" style="stop-color:#45537F"/>
			<stop  offset="0.7633" style="stop-color:#2A3469"/>
			<stop  offset="1" style="stop-color:#202961"/>
		</linearGradient>
		<path class="st14" d="M613.6,405.5c0,0-1.4,13-1.4,17.2s-2.7,20,3.3,20s10.4-7.3,11.3-11.3c0.9-4-0.8-13.1-0.8-20.5
			s-2.5-7.2-2.5-7.2L613.6,405.5z"/>
		<path class="st13" d="M626,340.6l-19.3-0.2c0,0,1.6,14.4,3.3,29.7l0,0c1.8,16.4,3.7,33.9,3.7,35.4c0,1.6-0.4,9.4-0.3,16.1
			c0.1,5.6,0.2,10.2,3.4,10.5c0.5,0.1,1,0,1.5,0c3.7-0.6,5.6-5,5.6-9.5c0-5,0.9-14.8,0-18s0.5-12.1,0.5-16
			C624.4,383,630.7,359.6,626,340.6z"/>
		
			<linearGradient id="SVGID_11_" gradientUnits="userSpaceOnUse" x1="906.5125" y1="305.2879" x2="907.9928" y2="145.407" gradientTransform="matrix(1 0 0 -1 -299.9977 500)">
			<stop  offset="0" style="stop-color:#3E4EE0"/>
			<stop  offset="0.1369" style="stop-color:#434FDF"/>
			<stop  offset="0.3065" style="stop-color:#5353DC"/>
			<stop  offset="0.4933" style="stop-color:#6C5AD7"/>
			<stop  offset="0.6927" style="stop-color:#8F63D0"/>
			<stop  offset="0.8998" style="stop-color:#BC6FC7"/>
			<stop  offset="1" style="stop-color:#D475C2"/>
		</linearGradient>
		<path class="st15" d="M637.1,294.7c0-16.9-7.4-26.6-7.4-26.6l-28.6-0.2l-15.3,0.7c0,0-9.7,12-7.7,38c1.5,19.2,5.3,32.4,7.1,37.9
			l0,0c0.6,1.9,1,2.9,1,2.9s2,9.5,22,9.5s20.6-9.5,20.6-9.5S637,319.9,637.1,294.7z"/>
		
			<linearGradient id="SVGID_12_" gradientUnits="userSpaceOnUse" x1="905.446" y1="307.1046" x2="906.9434" y2="145.4009" gradientTransform="matrix(1 0 0 -1 -299.9977 500)">
			<stop  offset="0" style="stop-color:#3E4EE0"/>
			<stop  offset="0.1369" style="stop-color:#434FDF"/>
			<stop  offset="0.3065" style="stop-color:#5353DC"/>
			<stop  offset="0.4933" style="stop-color:#6C5AD7"/>
			<stop  offset="0.6927" style="stop-color:#8F63D0"/>
			<stop  offset="0.8998" style="stop-color:#BC6FC7"/>
			<stop  offset="1" style="stop-color:#D475C2"/>
		</linearGradient>
		<path class="st16" d="M627.9,197.4c-3.8-4.1-7.7-6.9-7.7-6.9s-22.4-2.9-28.1,2.6c-4.2,4-14,20.9-15.4,28.7
			c-0.1,0.3-0.1,0.7-0.1,1.1c-0.5,4.7,0.5,12.6,2.3,21c1.8,8.7,4.3,17.9,6.5,24.2c0,0,0.8,4.6,6.5,7.4c8.6,4.2,22.7,4.1,31.3,0
			c4.4-2,6.2-4.6,6.5-7.4c0-0.1,1.5-12.7,2.8-26.2c1.2-12.1,2.4-25,2.4-30.1C635,206.5,631.5,201.3,627.9,197.4z"/>
		
			<linearGradient id="SVGID_13_" gradientUnits="userSpaceOnUse" x1="876.6077" y1="284.9745" x2="927.9077" y2="284.9745" gradientTransform="matrix(1 0 0 -1 -299.9977 500)">
			<stop  offset="0" style="stop-color:#3E4EE0"/>
			<stop  offset="0.1369" style="stop-color:#434FDF"/>
			<stop  offset="0.3065" style="stop-color:#5353DC"/>
			<stop  offset="0.4933" style="stop-color:#6C5AD7"/>
			<stop  offset="0.6927" style="stop-color:#8F63D0"/>
			<stop  offset="0.8998" style="stop-color:#BC6FC7"/>
			<stop  offset="1" style="stop-color:#D475C2"/>
		</linearGradient>
		<path class="st17" d="M620.2,190.6c0,0-22.4-2.9-28.1,2.6c-4.2,4-14,20.9-15.4,28.7c-0.1,0.3-0.1,0.7-0.2,1.1
			c1-0.4,7.7-2.8,16.6,1.4c9.5,4.5,20.9,8,22,15.2c0.9,5.4,8.8-26.1,12.7-42.1C624.1,193.3,620.2,190.6,620.2,190.6z"/>
		<path class="st13" d="M620.7,191.1c0,0,1.1,3.9-1.2,8.2s-18.8,20.4-23.4,8c-3.5-9.5,3.5-16.8,3.5-16.8L620.7,191.1z"/>
		<path class="st18" d="M626.4,107.2c-1.5-0.5-3.2-0.7-4.9-0.7c-7.8,0-14.4,5.1-16.5,12.2c-0.5,1.6-0.8,3.3-0.8,5.1
			c0,9.6,7.8,17.3,17.3,17.3c9.6,0,17.3-7.7,17.3-17.3C638.9,116,633.6,109.3,626.4,107.2z"/>
		<path class="st19" d="M626.4,107.2c0.5,1.4,0,7.7-5.7,11.6c-6.7,4.5-16.2,3.3-16.2,3.3c-0.5,1.6,7.5,19.1,17,19.1
			c9.6,0,17.3-7.7,17.3-17.3C638.9,116,633.6,109.3,626.4,107.2z"/>
		<path class="st13" d="M602.7,195.5c4.1,2.4,10.8,2.4,14.9,0c2.1-1.2,3.1-2.9,3.1-4.5v-21.4h-21.1V191
			C599.5,192.7,600.6,194.3,602.7,195.5z"/>
		<path class="st18" d="M615.2,121.2c-1.9-0.2-4-0.2-6.2-0.1c-25.8,2.3-26.1,23.9-26.1,23.9l15-6.7l5.9,2.7l11.6,7.4l0.9,6.6l0,0
			l0.4,3.3c0,0,0,0,0,0.1c0.1,0.5,0.2,1.1,0.2,1.7l0.8,5.9l1.5,11.8c0,0,8.4-1.5,13.8-16.2C638,148.2,635.4,123.6,615.2,121.2z"/>
		<path class="st7" d="M623.8,156.8c-1,0.5-1.9,1.8-2.3,2.4c-0.1,0.2-0.2,0.3-0.2,0.3s-1-3.1-3.2-6.9c-1.3-2.3-2.9-4.9-5-7.3
			c-0.6-0.7-1.3-1.4-2-2.1c-6.3-6-15.5-9.4-27.8-0.2c0,0-1.4,8.1-1.1,17.4c0,0,0,0.2,0,0.5c0.4,10.1,2.8,21.4,11.2,26
			c0.9,0.5,1.8,0.9,2.8,1.2c5.2,1.6,11.8-2.1,15.8-4.6c1.4-0.9,2.8-1.8,4-2.8c1.1-0.9,2.1-1.8,2.9-2.8c0,0,0-0.1,0.1-0.1
			c1.2-1.4,1.9-3,1.9-4.6c0.1,0,5-0.1,6.3-11.4C627.9,156.8,625.7,155.9,623.8,156.8z"/>
		<path class="st18" d="M615.1,150.1c0-0.7-0.1-1.3-0.1-1.9c0-0.2,0-0.5-0.1-0.7c-0.2-1.4-0.4-2.8-0.6-3.9l0,0
			c-0.4-1.8-0.9-3.3-1.4-4.7c-1-2.3-2.1-4-3.2-5.2c-1.6-1.7-3.1-2.6-4-3l0,0c-0.6-0.2-1-0.3-1-0.3s-12-0.3-19.2,7.1
			c-0.4,0.5-0.9,1-1.2,1.5c-0.9,1.3-1.6,2.7-2.1,4.2c0,0,0,0,0,0.1c-1.3,3.8-1.2,7.7-1.1,9.1c0,0.4,0.1,0.6,0.1,0.6s0.4,0.7,1.4,1.7
			c1.6,1.7,5.1,4.5,11.5,5.8c2.8,0.6,5.4,1.2,7.8,1.3c0.1,0,0.2-0.4,0.3-1.1c0.3-1.6,0.6-4.5,0.8-7.1c0.1-1.1,0.1-2.1,0.2-2.9
			c0-0.3,0-0.6,0.1-0.9c0-0.8,0.1-1.3,0.1-1.3s0,0.4,0.1,1.2l0,0c0,0.3,0,0.6,0.1,0.9c0,0.8,0.1,1.8,0.2,2.8
			c0.2,2.7,0.4,5.9,0.6,7.4c0.1,0.6,0.2,0.9,0.2,0.9c1.7-0.1,3.2-0.3,4.5-0.6c3.7-0.8,6-2,6-2c0.1-1.7,0.2-3.4,0.2-4.9
			C615.2,152.6,615.2,151.3,615.1,150.1z"/>
		<path class="st18" d="M621.5,159.1l-1.9-8.9l-1.4-6.4l-7-0.7l-1.6-0.2l5.3,10.4c0,0,0.6,1,1.1,2.4c0.3,0.8,0.5,1.6,0.7,2.6
			c0.6,3.9,0.4,8.6,1.9,8.6C621,167,621.5,159.2,621.5,159.1L621.5,159.1z"/>
		<path class="st19" d="M618.2,166.8c0.1,0.2,0.3,0.2,0.4,0.2c0.5,0,0.8-0.3,1.2-0.7L618.2,166.8z"/>
		<path class="st19" d="M615.2,121.2c5.4,2.6,10,5.9,12.2,10c3.1,6,5.9,23-0.4,32.9c-1.6,9.2-5.9,9.3-6,9.3c0,1.6-0.6,3-1.7,4.4
			c0,0,8.4-1.6,13.8-16.2C638,148.2,635.4,123.6,615.2,121.2z"/>
		<path class="st7" d="M588.2,358.8c0.5,12.2,1.1,27.3,1.1,32.4c0,8.8-0.6,23-3.5,26c-1.3,1.3-0.6,2.5,0.8,3.1
			c3.9-2.9,7.9-9,9.7-20.4C599.8,377.7,588.8,359.6,588.2,358.8z"/>
		<path class="st7" d="M620.4,390.6c0-17.4-10.5-20.6-10.5-20.6c1.8,16.4,3.7,33.9,3.7,35.4c0,1.6-0.3,9.4-0.3,16.1
			c0.1,5.6,0.2,10.2,3.4,10.5c0.5,0.1,1,0,1.5,0C621.5,422.8,620.4,404.8,620.4,390.6z"/>
	</g>
	
		<linearGradient id="SVGID_14_" gradientUnits="userSpaceOnUse" x1="900.9866" y1="335.31" x2="900.9866" y2="357.01" gradientTransform="matrix(1 0 0 -1 -299.9977 500)">
		<stop  offset="0" style="stop-color:#CFD1D2"/>
		<stop  offset="0.2584" style="stop-color:#C4C6C7"/>
		<stop  offset="0.7098" style="stop-color:#A7A9AB"/>
		<stop  offset="1" style="stop-color:#919395"/>
	</linearGradient>
	<path class="st20" d="M620.3,153.7c-0.6-0.9-1.6-1.9-3.1-2.7c-0.5-0.3-1-0.5-1.6-0.8c-0.1-0.1-0.3-0.1-0.5-0.2
		c-0.6-0.2-1.4-0.4-2.1-0.5c-0.8-0.1-1.7-0.1-2.7-0.1c-1.7,0.1-4.1,0.5-6.9,0.8c-0.1,0-0.2,0-0.3,0.1c-4.3,0.5-9.2,0.8-13.3-0.4
		c-3.5-1-5.5-3.1-6.7-4.8L583,145c-0.1-0.1-0.1-0.2-0.1-0.3c-0.5-0.7-0.7-1.3-0.9-1.8c0,0,0,0,0,0.1c-1.3,3.8-1.5,7.7-1.4,9.1
		c0.3,0.3,1.1,0.7,1.8,1.2l0,0c2.6,2.1,7.7,5.6,13.4,6.3c2.2,0.2,4.3,0.5,6.2,0.6c0.8,0.1,1.5,0.1,2.2,0.2c1.9,0.2,3.5,0.2,4.8,0.3
		c1.5,0.1,2.4,0.1,2.4,0.1l4.2,3.8l1.6-2.4l0.1-0.1l3.2-4.9l0.5-0.8l0.4-0.6C621.3,155.5,621,154.6,620.3,153.7z"/>
	<path class="st21" d="M615.1,168.6l-4.2-3.8c0,0-7.2-0.3-15.5-1.2c-8.3-1-14.7-11.8-14.7-11.8l0.1-0.8c0,0,2.5,1.9,10.8,4.9
		c6.7,2.4,13.3,1,17.8,1c4.8,0,10,2.6,10,4L615.1,168.6z"/>
	
		<linearGradient id="SVGID_15_" gradientUnits="userSpaceOnUse" x1="890.7604" y1="360.7795" x2="926.8473" y2="360.7795" gradientTransform="matrix(1 0 0 -1 -299.9977 500)">
		<stop  offset="0" style="stop-color:#919395"/>
		<stop  offset="0.7312" style="stop-color:#BABCBE"/>
		<stop  offset="0.8295" style="stop-color:#B7B9BB"/>
		<stop  offset="0.9085" style="stop-color:#ADAFB1"/>
		<stop  offset="0.9805" style="stop-color:#9C9EA0"/>
		<stop  offset="1" style="stop-color:#96989A"/>
	</linearGradient>
	<path class="st22" d="M624.8,132.5c-1.9-3.8-7.9-8.1-13.2-9.7c-5.2-1.6-12.7-2.3-15-1.8c-2.8,0.6-4.7,2.3-5.3,3.9s-1,3.9-0.1,3
		c0.1,0,0.2-0.1,0.2-0.2c1-0.9,3.3-2.3,3.3-2.3c0.3-0.1,0.7-0.2,1.1-0.3c2.9-0.6,8.5-0.1,13.6,1.7c5.6,1.9,9.2,5.3,10.6,7
		c4.7,5.5,2.5,23.8,2.5,23.8l3.9-0.8C626.3,156.8,628.2,139.3,624.8,132.5z"/>
	<path class="st23" d="M591.9,126.2c-0.3,0.7-0.4,1.4-0.4,1.6c1-0.9,3.3-2.3,3.3-2.3c0.3-0.1,0.7-0.2,1.1-0.3
		C595.8,125.2,592.2,125.4,591.9,126.2z"/>
	<path class="st24" d="M621.7,155.7c-5,3.1-7.9,9.5-7.9,14.6s5.4,6.9,10.5,3.9c5.1-2.9,8.7-9.5,8.7-14.6
		C632.9,154.5,628,151.8,621.7,155.7z"/>
	
		<linearGradient id="SVGID_16_" gradientUnits="userSpaceOnUse" x1="918.3912" y1="328.0934" x2="932.374" y2="342.0763" gradientTransform="matrix(1 0 0 -1 -299.9977 500)">
		<stop  offset="0" style="stop-color:#F0F1F1"/>
		<stop  offset="0.1855" style="stop-color:#E5E6E6"/>
		<stop  offset="0.5106" style="stop-color:#C8C9CA"/>
		<stop  offset="0.9346" style="stop-color:#999B9D"/>
		<stop  offset="1" style="stop-color:#919395"/>
	</linearGradient>
	<path class="st25" d="M625.4,157.4c-4.1,2.4-7.5,7.7-7.5,11.8s3.4,5.6,7.5,3.2c4.1-2.4,7.5-7.7,7.5-11.8S629.5,155.1,625.4,157.4z"
		/>
	<path class="st6" d="M602.9,160.5L602.9,160.5c-1.7,0.1-3.2,0-4.7-0.1c-1.6-0.2-3.1-0.5-4.6-0.9c-8-2.1-14.1-6.6-14.1-6.6l0.5,15.4
		c0.2,0.2,0.5,0.5,0.8,0.7c0.9,0.8,1.8,1.5,2.9,2.2c0.9,0.6,1.9,1.1,2.9,1.5c4.9,2.2,10.8,3.3,16.4,3.6c0.4,0,0.8,0.1,1.2,0.1
		c8.5,0.3,9.8-5,9.9-8.4v-0.4C614,164.8,614.9,159.8,602.9,160.5z"/>
	
		<linearGradient id="SVGID_17_" gradientUnits="userSpaceOnUse" x1="886.5677" y1="331.5428" x2="914.0677" y2="331.5428" gradientTransform="matrix(1 0 0 -1 -299.9977 500)">
		<stop  offset="0" style="stop-color:#0700AA"/>
		<stop  offset="8.100000e-02" style="stop-color:#060099"/>
		<stop  offset="0.4034" style="stop-color:#040058"/>
		<stop  offset="0.675" style="stop-color:#020028"/>
		<stop  offset="0.882" style="stop-color:#00000B"/>
		<stop  offset="1" style="stop-color:#000000"/>
	</linearGradient>
	<path class="st26" d="M602.9,160.6L602.9,160.6l-16.3,12.2c4.9,2.2,10.8,3.3,16.4,3.6l11.1-8.3v-0.4
		C614,164.8,614.9,159.8,602.9,160.6z"/>
	
		<linearGradient id="SVGID_18_" gradientUnits="userSpaceOnUse" x1="880.7677" y1="334.55" x2="898.1877" y2="334.55" gradientTransform="matrix(1 0 0 -1 -299.9977 500)">
		<stop  offset="0" style="stop-color:#060094"/>
		<stop  offset="0.3356" style="stop-color:#040058"/>
		<stop  offset="0.638" style="stop-color:#020028"/>
		<stop  offset="0.8686" style="stop-color:#00000B"/>
		<stop  offset="1" style="stop-color:#000000"/>
	</linearGradient>
	<path class="st27" d="M593.6,159.6l-12.8,9.5c0.9,0.8,1.8,1.5,2.9,2.2l14.5-10.8C596.6,160.3,595,160,593.6,159.6z"/>
	
		<linearGradient id="SVGID_19_" gradientUnits="userSpaceOnUse" x1="888.2433" y1="323.4241" x2="901.6616" y2="346.6652" gradientTransform="matrix(1 0 0 -1 -299.9977 500)">
		<stop  offset="0" style="stop-color:#F0F1F1"/>
		<stop  offset="0.1855" style="stop-color:#E5E6E6"/>
		<stop  offset="0.5106" style="stop-color:#C8C9CA"/>
		<stop  offset="0.9346" style="stop-color:#999B9D"/>
		<stop  offset="1" style="stop-color:#919395"/>
	</linearGradient>
	<path class="st28" d="M616.8,167.2v0.5c0,3.4-0.9,6.2-2.9,8.1c-2,1.9-4.9,2.9-8.6,2.9c-0.2,0-0.5,0-0.7,0
		c-11.7-0.4-21.4-3.6-26.8-9c-0.6-0.6-0.6-1.6,0-2.3s1.4-0.4,2,0.2c4.8,4.8,14,7.9,24.9,8.3c3.2,0.1,5.5-1,7-2.4
		c1.6-1.6,2-4,1.9-5.8v-0.6c0-1.3,0-2.7-1-3.7c-1-0.9-3.4-1.9-9.2-1.6c-11.1,0.7-21.4-5.4-24.8-7.6c-0.2-0.1-0.4-0.2-0.5-0.4
		c-0.6-0.6-0.8-1.3-0.8-2c0-0.4,0.2-0.8,0.3-1.1l0,0c0.5-1,1.4-1.6,1.7-1.9c0.5-0.3,0.9-0.6,1.4-0.3l-0.2,3.1
		c3.4,2.2,12.8,7.6,22.5,6.9c5.7-0.4,9.5,0.4,11.6,2.4C616.8,163,616.8,165.5,616.8,167.2z"/>
	<path class="st6" d="M570.8,245.8l3.9,6.1l-6.6,4.4l-2.2-0.7c-2.6-2.6,0.6-11.2,3.4-10.7L570.8,245.8z"/>
	<path class="st7" d="M572.2,253.3l-1.4-7.3l-4.9-1.9c0,0,0,0-0.1-0.1c-1-0.7-9.1-5.9-11.2-5.9c-4,0-16.8,4.5-17.8,5.5
		c-0.1,0.1-0.1,0.1-0.1,0.2c-0.7,1,1.3,2.2,1.3,2.2s-0.1,0.1-0.3,0.1l-0.1,0.1c-0.2,0.1-0.5,0.3-0.8,0.5c-0.1,0.1-0.2,0.2-0.4,0.3
		l-0.1,0.1c-0.5,0.4-0.8,0.9-0.4,1.3c0.8,0.8,3.4,0.7,3.4,0.7s-1,1.2,0.4,1.7c1.3,0.5,6.8-0.8,7.4-1h0.1l0,0c0,0-1.1,1-0.4,1.7
		c0.5,0.5,2.1,0.2,5-0.4c2.9-0.6,5.8-0.8,8.7,0.7c1.4,0.7,6.8,3.6,6.8,3.6l5.1-1.9L572.2,253.3z"/>
	<path class="st8" d="M570.8,246.1l-4.9-1.9c0,0,0,0-0.1-0.1c-1-0.7-9.1-5.9-11.2-5.9c-4,0-16.8,4.5-17.8,5.5
		c-0.1,0.1-0.1,0.1-0.1,0.2c-0.1,0.4,0,1.2,1,1.3c1.9,0.1,5.3-0.5,6-0.7l-5.8,1.6c0,0-0.1,0.1-0.3,0.1l-0.1,0.1
		c-0.2,0.1-0.5,0.3-0.8,0.5c-0.1,0.1-0.2,0.2-0.4,0.3l-0.1,0.1c-0.3,0.3-0.3,0.6-0.1,0.9c1.2,1.2,6.1-0.2,7.9-0.8l-4.9,1.8
		c0,0-0.4,0.8,0.8,1.1c1.3,0.3,10.4-2,10.9-2.1l-3.9,1.7l0,0c0,0.1,0,0.7,0.8,0.7s7.1-2,10.4-2c3.3,0,10.9,4.3,10.9,4.3l3,0.4
		L570.8,246.1z"/>
	
		<linearGradient id="SVGID_20_" gradientUnits="userSpaceOnUse" x1="931.8857" y1="300.7999" x2="880.3687" y2="222.6657" gradientTransform="matrix(1 0 0 -1 -299.9977 500)">
		<stop  offset="0" style="stop-color:#3E4EE0"/>
		<stop  offset="0.1369" style="stop-color:#434FDF"/>
		<stop  offset="0.3065" style="stop-color:#5353DC"/>
		<stop  offset="0.4933" style="stop-color:#6C5AD7"/>
		<stop  offset="0.6927" style="stop-color:#8F63D0"/>
		<stop  offset="0.8998" style="stop-color:#BC6FC7"/>
		<stop  offset="1" style="stop-color:#D475C2"/>
	</linearGradient>
	<path class="st29" d="M637.3,209.7c-1.6-8.5-11.4-14.3-11.4-14.3s-7.6,25.8-7.6,26.6s-1.5,24.9-10.8,28.6
		c-11.8,4.6-36.3-4.9-38.3-5.7c0.8,0.4,1.3,1.4,1.4,2.8c0.1,1.6-0.3,3.4-1.1,4.9c-0.5,0.9-1.2,1.8-2,2.3c-0.6,0.4-1.2,0.6-1.8,0.5
		l0,0c0,0,7.3,4.9,23.6,10.1c21.5,7,32.8-1.8,42.7-17.1c4.8-7.4,6.6-14.4,7-20.6C639.7,220.6,638.1,214.2,637.3,209.7z"/>
	
		<linearGradient id="SVGID_21_" gradientUnits="userSpaceOnUse" x1="869.1978" y1="271.0286" x2="939.2294" y2="271.0286" gradientTransform="matrix(1 0 0 -1 -299.9977 500)">
		<stop  offset="0" style="stop-color:#3E4EE0"/>
		<stop  offset="0.1369" style="stop-color:#434FDF"/>
		<stop  offset="0.3065" style="stop-color:#5353DC"/>
		<stop  offset="0.4933" style="stop-color:#6C5AD7"/>
		<stop  offset="0.6927" style="stop-color:#8F63D0"/>
		<stop  offset="0.8998" style="stop-color:#BC6FC7"/>
		<stop  offset="1" style="stop-color:#D475C2"/>
	</linearGradient>
	<path class="st30" d="M637.3,209.7c-1.6-8.5-11.4-14.3-11.4-14.3s-7.6,25.8-7.6,26.6s-1.5,24.9-10.8,28.6
		c-11.8,4.6-36.3-4.9-38.3-5.7c0.8,0.4,1.3,1.4,1.4,2.8c0.1,1.6-0.3,3.4-1.1,4.9c0,0,18,10.7,36.2,9.9c17.1-0.7,30.1-23.6,33.4-34.6
		C639.7,220.6,638.1,214.2,637.3,209.7z"/>
	<path class="st31" d="M491.3,208.1c17.7-10.2,38.5-17.6,60.6-22.2V118c-22.1,4.5-42.9,11.9-60.6,22.2c-16,9.3-28,19.9-36,31.3v67.9
		C463.3,228,475.3,217.4,491.3,208.1z"/>
	
		<linearGradient id="SVGID_22_" gradientUnits="userSpaceOnUse" x1="799.4837" y1="217.0332" x2="998.8776" y2="202.9839" gradientTransform="matrix(1 0 0 -1 -299.9977 500)">
		<stop  offset="0" style="stop-color:#6E3AFF"/>
		<stop  offset="1" style="stop-color:#FFFFFF"/>
	</linearGradient>
	<path class="st32" d="M695.6,292.9c-0.3-0.2-0.8-0.1-1,0.3c-5.6,9.7-14.8,18.3-27.4,25.5c-44.5,25.7-117,25.7-161.5,0
		c-21.4-12.4-33.2-28.8-33.2-46.2c0-14.9,8.6-29.1,24.6-40.6c-0.3,0-0.7,0.1-1,0.1c-0.5,0-1,0-1.5-0.1
		c-15.3,11.6-23.6,25.7-23.6,40.6c0,18,12.1,34.8,34,47.5c22.5,13,52,19.5,81.5,19.5s59-6.5,81.5-19.5c12.8-7.4,22.3-16.2,28-26.1
		C696.1,293.6,696,293.1,695.6,292.9z"/>
	
		<linearGradient id="SVGID_23_" gradientUnits="userSpaceOnUse" x1="1009.8123" y1="360.9058" x2="864.3829" y2="444.8694" gradientTransform="matrix(1 0 0 -1 -299.9977 500)">
		<stop  offset="0" style="stop-color:#6E3AFF"/>
		<stop  offset="1" style="stop-color:#FFFFFF"/>
	</linearGradient>
	<path class="st33" d="M709.4,139.3c0.4-0.1,0.7-0.5,0.6-0.9c-3.5-17.3-16.6-32.9-37.9-45.2c-30.7-17.7-74.5-25.6-117.2-21
		c-0.4,0-0.7,0.4-0.7,0.8s0.4,0.7,0.8,0.7c42.4-4.5,85.9,3.3,116.3,20.8c20.9,12.1,33.8,27.3,37.2,44.2c0.1,0.4,0.4,0.6,0.7,0.6
		C709.3,139.3,709.4,139.3,709.4,139.3z"/>
	
		<linearGradient id="SVGID_24_" gradientUnits="userSpaceOnUse" x1="799.486" y1="325.333" x2="998.8799" y2="311.2836" gradientTransform="matrix(1 0 0 -1 -299.9977 500)">
		<stop  offset="0" style="stop-color:#6E3AFF"/>
		<stop  offset="1" style="stop-color:#FFFFFF"/>
	</linearGradient>
	<path class="st34" d="M695.6,184.6c-0.3-0.2-0.8-0.1-1,0.3c-5.6,9.7-14.8,18.3-27.4,25.5c-44.5,25.7-117,25.7-161.5,0
		c-21.4-12.4-33.2-28.8-33.2-46.2c0-14.9,8.6-29.1,24.6-40.6c-0.3,0-0.7,0.1-1,0.1c-0.5,0-1,0-1.5-0.1
		c-15.3,11.6-23.6,25.7-23.6,40.6c0,18,12.1,34.8,34,47.5c22.5,13,52,19.5,81.5,19.5s59-6.5,81.5-19.5c12.8-7.4,22.3-16.2,28-26.1
		C696.1,185.3,696,184.8,695.6,184.6z"/>
	<path class="st5" d="M432,172c-2.1-1.2-4-2.4-6-3.6v104.2c1.9,1.2,3.9,2.4,6,3.6c45.1,26.1,104.5,38.8,163.7,38.1V210.1
		C536.6,210.8,477.2,198.1,432,172z"/>
	<path class="st5" d="M700,243.1c-16,9.2-34.8,15.9-54.8,20v61.3c20-4.1,38.8-10.8,54.8-20c14.5-8.4,25.3-18,32.5-28.3v-61.3
		C725.3,225,714.5,234.7,700,243.1z"/>
	
		<linearGradient id="SVGID_25_" gradientUnits="userSpaceOnUse" x1="894.7477" y1="36.875" x2="894.7477" y2="492.8" gradientTransform="matrix(1 0 0 -1 -299.9977 500)">
		<stop  offset="0" style="stop-color:#F6F6F7"/>
		<stop  offset="1" style="stop-color:#F6F6F7;stop-opacity:0"/>
	</linearGradient>
	<path class="st35" d="M808.1,7.2H381.4l158.2,422v0.2c0,0.4,0.1,0.7,0.1,1c1.5,8,7.8,15.8,18.7,22c25.4,14.3,66.7,14.3,92.1,0
		c11.6-6.5,17.9-14.9,18.9-23.4L808.1,7.2z"/>
</g>
</svg>
